<svg viewBox="28 32 188 196" xmlns="http://www.w3.org/2000/svg" role="img">
  <title>swayambhu-qa emblem</title>
  <g transform="translate(120, 130)">
    <circle cx="0" cy="0" r="95" fill="none" stroke="#1D9E75" stroke-width="1.2" opacity="0.5"/>
    <circle cx="0" cy="0" r="82" fill="none" stroke="#1D9E75" stroke-width="0.7" opacity="0.35"/>
    <g opacity="0.28">
      <ellipse cx="0" cy="-64" rx="13" ry="28" fill="#1D9E75"/>
      <ellipse cx="0" cy="-64" rx="13" ry="28" fill="#1D9E75" transform="rotate(45)"/>
      <ellipse cx="0" cy="-64" rx="13" ry="28" fill="#1D9E75" transform="rotate(90)"/>
      <ellipse cx="0" cy="-64" rx="13" ry="28" fill="#1D9E75" transform="rotate(135)"/>
      <ellipse cx="0" cy="-64" rx="13" ry="28" fill="#1D9E75" transform="rotate(180)"/>
      <ellipse cx="0" cy="-64" rx="13" ry="28" fill="#1D9E75" transform="rotate(225)"/>
      <ellipse cx="0" cy="-64" rx="13" ry="28" fill="#1D9E75" transform="rotate(270)"/>
      <ellipse cx="0" cy="-64" rx="13" ry="28" fill="#1D9E75" transform="rotate(315)"/>
    </g>
    <g stroke="#1D9E75" stroke-width="1.5" opacity="0.75">
      <line x1="0" y1="-95" x2="0" y2="-85" transform="rotate(0)"/>
      <line x1="0" y1="-95" x2="0" y2="-85" transform="rotate(45)"/>
      <line x1="0" y1="-95" x2="0" y2="-85" transform="rotate(90)"/>
      <line x1="0" y1="-95" x2="0" y2="-85" transform="rotate(135)"/>
      <line x1="0" y1="-95" x2="0" y2="-85" transform="rotate(180)"/>
      <line x1="0" y1="-95" x2="0" y2="-85" transform="rotate(225)"/>
      <line x1="0" y1="-95" x2="0" y2="-85" transform="rotate(270)"/>
      <line x1="0" y1="-95" x2="0" y2="-85" transform="rotate(315)"/>
    </g>
    <g fill="#1D9E75" opacity="0.6">
      <circle cx="0" cy="-82" r="2.5" transform="rotate(0)"/>
      <circle cx="0" cy="-82" r="2.5" transform="rotate(22.5)"/>
      <circle cx="0" cy="-82" r="2.5" transform="rotate(45)"/>
      <circle cx="0" cy="-82" r="2.5" transform="rotate(67.5)"/>
      <circle cx="0" cy="-82" r="2.5" transform="rotate(90)"/>
      <circle cx="0" cy="-82" r="2.5" transform="rotate(112.5)"/>
      <circle cx="0" cy="-82" r="2.5" transform="rotate(135)"/>
      <circle cx="0" cy="-82" r="2.5" transform="rotate(157.5)"/>
      <circle cx="0" cy="-82" r="2.5" transform="rotate(180)"/>
      <circle cx="0" cy="-82" r="2.5" transform="rotate(202.5)"/>
      <circle cx="0" cy="-82" r="2.5" transform="rotate(225)"/>
      <circle cx="0" cy="-82" r="2.5" transform="rotate(247.5)"/>
      <circle cx="0" cy="-82" r="2.5" transform="rotate(270)"/>
      <circle cx="0" cy="-82" r="2.5" transform="rotate(292.5)"/>
      <circle cx="0" cy="-82" r="2.5" transform="rotate(315)"/>
      <circle cx="0" cy="-82" r="2.5" transform="rotate(337.5)"/>
    </g>
    <path d="M-58 0 Q0 -42 58 0 Q0 42 -58 0 Z" fill="none" stroke="#1D9E75" stroke-width="1.8" opacity="0.85"/>
    <circle cx="0" cy="0" r="24" fill="none" stroke="#1D9E75" stroke-width="1.4" opacity="1"/>
    <circle cx="0" cy="0" r="17" fill="#1D9E75" opacity="0.18"/>
    <circle cx="0" cy="0" r="15" fill="#1D9E75" opacity="1"/>
    <polyline points="-6,1 -2,6 8,-6" fill="none" stroke="white" stroke-width="2.5" stroke-linecap="round" stroke-linejoin="round"/>
    <g stroke="#1D9E75" stroke-width="0.9" opacity="0.65" fill="none">
      <polyline points="58,0 70,0 74,-8"/>
      <polyline points="58,0 70,0 74,8"/>
      <polyline points="-58,0 -70,0 -74,-8"/>
      <polyline points="-58,0 -70,0 -74,8"/>
      <polyline points="0,-42 0,-56 8,-60"/>
      <polyline points="0,-42 0,-56 -8,-60"/>
      <polyline points="0,42 0,56 8,60"/>
      <polyline points="0,42 0,56 -8,60"/>
    </g>
    <g fill="#1D9E75" opacity="0.75">
      <circle cx="74" cy="-8" r="2.5"/>
      <circle cx="74" cy="8" r="2.5"/>
      <circle cx="-74" cy="-8" r="2.5"/>
      <circle cx="-74" cy="8" r="2.5"/>
      <circle cx="8" cy="-60" r="2.5"/>
      <circle cx="-8" cy="-60" r="2.5"/>
      <circle cx="8" cy="60" r="2.5"/>
      <circle cx="-8" cy="60" r="2.5"/>
    </g>
  </g>
</svg>
